<svg width="34" height="60" viewBox="0 0 34 60" fill="none" xmlns="http://www.w3.org/2000/svg">
<path d="M14.5495 28.3949C16.0285 30.8549 15.811 33.7499 14.042 34.9199C12.273 36.0599 9.634 34.9949 8.1405 32.5349C6.6615 30.0749 6.8935 27.1499 8.6625 26.0099C10.4315 24.8699 13.0705 25.9349 14.5495 28.3949ZM17 38.6249C19.9 38.6249 20.625 37.4999 20.625 37.4999C20.625 37.4999 19.9 40.4999 17 40.4999C14.1 40.4999 13.375 37.5449 13.375 37.4999C13.375 37.4999 14.1 38.6249 17 38.6249ZM25.3375 26.0099C27.1065 27.1499 27.3385 30.0749 25.8595 32.5349C24.366 34.9949 21.727 36.0599 19.958 34.9199C18.189 33.7499 17.9715 30.8549 19.4505 28.3949C20.9295 25.9349 23.5685 24.8699 25.3375 26.0099ZM17 41.9999C20.625 41.9999 28.6 34.2899 28.6 28.4999C28.6 22.7099 23.3945 17.9999 17 17.9999C10.6055 17.9999 5.4 22.7099 5.4 28.4999C5.4 34.2899 13.375 41.9999 17 41.9999ZM17 14.9999C24.975 14.9999 31.5 21.0599 31.5 28.4999C31.5 34.6199 23.264 44.9999 17 44.9999C10.736 44.9999 2.5 34.6199 2.5 28.4999C2.5 21.0599 9.025 14.9999 17 14.9999Z" fill="#02E4C0"/>
</svg>
