<svg width="32" height="62" viewBox="0 0 32 62" fill="none" xmlns="http://www.w3.org/2000/svg">
<path d="M10.6464 32.6088L14.4197 28.8354L6.16636 20.5954C5.52636 19.9554 4.41969 20.1288 4.01969 20.9554C3.07302 22.9421 3.41969 25.3821 5.05969 27.0354L10.6464 32.6088ZM19.6864 30.1954C21.7264 31.1421 24.593 30.4754 26.713 28.3554C29.2597 25.8088 29.753 22.1554 27.793 20.1954C25.8464 18.2488 22.193 18.7288 19.633 21.2754C17.513 23.3954 16.8464 26.2621 17.793 28.3021L5.71302 40.3821C5.46372 40.6314 5.32366 40.9695 5.32366 41.3221C5.32366 41.6747 5.46372 42.0128 5.71302 42.2621C5.96233 42.5114 6.30046 42.6514 6.65302 42.6514C7.00559 42.6514 7.34372 42.5114 7.59302 42.2621L15.8464 34.0354L24.0864 42.2754C24.2098 42.3989 24.3563 42.4968 24.5176 42.5636C24.6789 42.6304 24.8518 42.6648 25.0264 42.6648C25.2009 42.6648 25.3738 42.6304 25.5351 42.5636C25.6964 42.4968 25.8429 42.3989 25.9664 42.2754C26.0898 42.152 26.1877 42.0054 26.2545 41.8441C26.3213 41.6829 26.3557 41.51 26.3557 41.3354C26.3557 41.1608 26.3213 40.988 26.2545 40.8267C26.1877 40.6654 26.0898 40.5189 25.9664 40.3954L17.7264 32.1554L19.6864 30.1954Z" fill="#02E4C0"/>
</svg>
